<svg width="27" height="26" viewBox="0 0 27 26" fill="none" xmlns="http://www.w3.org/2000/svg">
<path d="M11.0547 5.41667C11.0547 4.22005 12.0247 3.25 13.2214 3.25C14.418 3.25 15.388 4.22005 15.388 5.41667C17.9232 6.61543 19.5899 9.11543 19.7214 11.9167V15.1667C19.8867 16.5325 20.6908 17.7387 21.888 18.4167H4.55469C5.75189 17.7387 6.55602 16.5325 6.72135 15.1667V11.9167C6.85284 9.11543 8.5195 6.61543 11.0547 5.41667" stroke="#4B465C" stroke-width="2" stroke-linecap="round" stroke-linejoin="round"/>
<path d="M11.0547 5.41667C11.0547 4.22005 12.0247 3.25 13.2214 3.25C14.418 3.25 15.388 4.22005 15.388 5.41667C17.9232 6.61543 19.5899 9.11543 19.7214 11.9167V15.1667C19.8867 16.5325 20.6908 17.7387 21.888 18.4167H4.55469C5.75189 17.7387 6.55602 16.5325 6.72135 15.1667V11.9167C6.85284 9.11543 8.5195 6.61543 11.0547 5.41667" stroke="white" stroke-opacity="0.2" stroke-width="2" stroke-linecap="round" stroke-linejoin="round"/>
<path d="M9.9707 18.4166V19.5C9.9707 21.2949 11.4258 22.75 13.2207 22.75C15.0156 22.75 16.4707 21.2949 16.4707 19.5V18.4166" stroke="#4B465C" stroke-width="2" stroke-linecap="round" stroke-linejoin="round"/>
<path d="M9.9707 18.4166V19.5C9.9707 21.2949 11.4258 22.75 13.2207 22.75C15.0156 22.75 16.4707 21.2949 16.4707 19.5V18.4166" stroke="white" stroke-opacity="0.2" stroke-width="2" stroke-linecap="round" stroke-linejoin="round"/>
</svg>
