<svg width="14" height="14" viewBox="0 0 14 14" fill="none" xmlns="http://www.w3.org/2000/svg">
<g clip-path="url(#clip0_197_5047)">
<path d="M12.75 1.87695H10.125V0.876953C10.125 0.808203 10.0687 0.751953 9.99998 0.751953H9.12499C9.05624 0.751953 8.99999 0.808203 8.99999 0.876953V1.87695H4.99999V0.876953C4.99999 0.808203 4.94374 0.751953 4.87499 0.751953H3.99999C3.93124 0.751953 3.87499 0.808203 3.87499 0.876953V1.87695H1.25C0.973437 1.87695 0.75 2.10039 0.75 2.37695V12.752C0.75 13.0285 0.973437 13.252 1.25 13.252H12.75C13.0265 13.252 13.25 13.0285 13.25 12.752V2.37695C13.25 2.10039 13.0265 1.87695 12.75 1.87695ZM12.125 12.127H1.875V6.18945H12.125V12.127ZM1.875 5.12695V3.00195H3.87499V3.75195C3.87499 3.8207 3.93124 3.87695 3.99999 3.87695H4.87499C4.94374 3.87695 4.99999 3.8207 4.99999 3.75195V3.00195H8.99999V3.75195C8.99999 3.8207 9.05624 3.87695 9.12499 3.87695H9.99998C10.0687 3.87695 10.125 3.8207 10.125 3.75195V3.00195H12.125V5.12695H1.875Z" fill="#8B909A"/>
</g>
<defs>
<clipPath id="clip0_197_5047">
<rect width="14" height="14" fill="white"/>
</clipPath>
</defs>
</svg>
