<svg width="22" height="22" viewBox="0 0 22 22" fill="none" xmlns="http://www.w3.org/2000/svg">
<path d="M5.49935 19.2499C6.51187 19.2499 7.33268 18.4291 7.33268 17.4166C7.33268 16.4041 6.51187 15.5833 5.49935 15.5833C4.48683 15.5833 3.66602 16.4041 3.66602 17.4166C3.66602 18.4291 4.48683 19.2499 5.49935 19.2499Z" stroke="#23272E" stroke-width="1.75" stroke-linecap="round" stroke-linejoin="round"/>
<path d="M5.49935 19.2499C6.51187 19.2499 7.33268 18.4291 7.33268 17.4166C7.33268 16.4041 6.51187 15.5833 5.49935 15.5833C4.48683 15.5833 3.66602 16.4041 3.66602 17.4166C3.66602 18.4291 4.48683 19.2499 5.49935 19.2499Z" stroke="#23272E" stroke-width="1.75" stroke-linecap="round" stroke-linejoin="round"/>
<path d="M15.5833 19.2499C16.5958 19.2499 17.4167 18.4291 17.4167 17.4166C17.4167 16.4041 16.5958 15.5833 15.5833 15.5833C14.5708 15.5833 13.75 16.4041 13.75 17.4166C13.75 18.4291 14.5708 19.2499 15.5833 19.2499Z" stroke="#23272E" stroke-width="1.75" stroke-linecap="round" stroke-linejoin="round"/>
<path d="M15.5833 19.2499C16.5958 19.2499 17.4167 18.4291 17.4167 17.4166C17.4167 16.4041 16.5958 15.5833 15.5833 15.5833C14.5708 15.5833 13.75 16.4041 13.75 17.4166C13.75 18.4291 14.5708 19.2499 15.5833 19.2499Z" stroke="#23272E" stroke-width="1.75" stroke-linecap="round" stroke-linejoin="round"/>
<path d="M15.5827 15.5833H5.49935V2.75H3.66602" stroke="#23272E" stroke-width="1.75" stroke-linecap="round" stroke-linejoin="round"/>
<path d="M15.5827 15.5833H5.49935V2.75H3.66602" stroke="#23272E" stroke-width="1.75" stroke-linecap="round" stroke-linejoin="round"/>
<path d="M5.5 4.58325L18.3333 5.49992L17.4167 11.9166H5.5" stroke="#23272E" stroke-width="1.75" stroke-linecap="round" stroke-linejoin="round"/>
<path d="M5.5 4.58325L18.3333 5.49992L17.4167 11.9166H5.5" stroke="#23272E" stroke-width="1.75" stroke-linecap="round" stroke-linejoin="round"/>
</svg>
