<svg width="253" height="323" viewBox="0 0 253 323" fill="none" xmlns="http://www.w3.org/2000/svg">
<path d="M76.4406 299.371L76.4077 299.397L75.5732 299.681L74.6156 299.569L73.4774 298.491L72.4557 298.724L71.8372 299.28L71.0315 299.504L70.483 300.077L69.6366 300.233L65.5153 300.218L64.5171 299.813L64.1025 298.648L63.9332 297.279L63.6767 296.291L62.731 295.449L50.7531 292.61L46.3167 290.783L41.8042 290.002L40.4853 290.204L36.6386 291.656L34.5547 291.564L32.5718 290.943L33.0246 289.252L32.6065 288.585L33.3649 285.869L32.8871 283.371L31.9862 280.944L31.4532 278.443L31.6692 275.255L32.3308 272.613L33.1442 270.184L33.7645 267.607L27.7573 266.53L27.0862 266.603L26.8744 267.423L26.7321 271.244L26.378 271.738L25.8265 271.846L25.1051 272.665L24.3282 273.769L23.4548 274.283L22.5815 274.083L21.8093 272.999L21.1657 270.545L21.2441 268.183L21.5982 265.79L21.8099 263.224L22.8668 261.283L25.2157 260.929L27.5922 261.629L28.7873 262.886L28.0288 263.087L27.4176 263.598L26.4342 264.906L26.6089 266.012L29.9734 266.507L33.0527 267.242L34.1928 266.779L34.0642 264.902L33.0252 261.533L32.299 257.29L31.8761 253.053L31.9862 251.915L32.4916 250.518L32.6065 249.662L32.5102 248.394L31.8761 245.905L31.3659 241.419L30.952 239.294L30.1385 237.386L28.7185 236.256L26.6914 235.758L22.9272 235.657L20.211 234.797L17.9082 232.632L12.7832 224.947L12.8293 224.24L14.0245 224.017V223.39L12.9399 222.947L11.6438 222.837L10.3799 223.166L9.40077 224.017L8.75298 225.423L8.92283 226.361L10.6006 228.165L10.0766 228.291L9.73214 228.53L9.01496 229.529L10.3201 229.768L11.8555 230.771L13.1421 232.259L13.6751 233.983L12.9489 234.263L6.18808 228.615L4.80935 227.802L1.4998 227.19L0.631283 226.308L0.5625 224.825L3.73866 216.294L4.80516 212.419L5.51278 208.295L5.60907 204.228L5.17124 201.026H5.18259L16.0545 200.919L17.8 202.169L19.2271 202.806L21.2177 204.081L21.9092 204.247L22.9368 204.038L23.6636 203.256L26.5036 200.039L26.6262 199.818L26.6525 199.559L26.5562 199.253L26.2673 198.616L26.2326 198.292L26.5216 198.005L26.924 197.745L27.4229 197.616L27.9397 197.631L28.4912 198.011L29.078 198.239L29.7551 198.367L30.7008 198.179L31.6291 197.766L32.2242 197.677L34.066 198.163L38.0352 200.995L39.0013 201.293L40.831 200.717L41.7414 200.135L41.7324 199.485L41.4345 197.781L42.0327 196.867L42.8905 193.903L44.957 192.867L47.7265 193.127L49.4366 194.738L51.6898 197.683L52.4692 198.281L54.4041 198.068L55.0113 197.493L55.738 197.584L56.2369 196.321L56.5348 195.79L57.0336 195.208L57.5415 194.818L58.5685 194.532L59.5232 193.741L62.1442 190.398L63.685 187.249L65.8157 186.78L71.1099 188.546L72.896 189.666L74.3171 190.947L77.1828 194.558L77.6117 195.297L77.6907 195.814L77.8743 196.54L78.2068 197.469L79.4677 198.992L80.8979 201.417L81.6857 202.424L82.5788 202.73L84.5778 202.497L85.6551 202.728L85.9266 203.296L85.7603 203.919L85.5241 204.497L85.4104 205.106L85.4977 205.854L86.1108 206.248L87.9698 206.502L89.2307 206.901L89.8815 207.492L90.1705 208.353L90.1178 209.239L89.8845 210.335L89.8821 210.347L84.658 210.318L83.3342 209.665L83.1547 210.049L83.0489 210.326L82.9891 210.628L82.9478 211.097L84.1244 211.664L88.1876 211.721L88.9227 212.174L91.8458 215.202L92.4482 216.391L92.8577 217.465L93.4275 218.247L94.5489 218.552H99.9498L99.0258 219.696L96.0935 222.023L94.5218 224.056L93.759 224.58L92.4437 224.755L91.9663 225.186L91.8648 226.12L91.8467 227.054L91.6529 227.481L88.096 228.378L86.8089 229.311L86.0276 229.527L85.3476 229.369L84.0789 228.817L83.3342 228.845L83.4813 229.255L83.7206 229.527L82.9024 230.692L80.8112 231.381L79.8595 232.254L80.8525 232.882L81.9142 232.814L84.695 232.083L85.21 231.771L85.7525 231.621L89.016 233.397L89.2457 234.52L89.0023 235.883L88.382 237.074L87.6097 237.605L85.6974 237.993L84.8703 238.431L85.1693 239.536L85.8632 241.042L86.0653 241.831L85.9092 242.948L85.5785 243.809L85.6658 244.549L86.81 245.281L87.5087 245.932L88.175 246.854L88.3449 247.828L87.5727 248.611V249.35L88.1517 250.008L90.2428 253.609L90.9363 253.907L91.6076 254.556L91.8467 256.182L91.6357 257.338L91.2353 258.052L90.8629 258.923L90.6881 260.518L90.3855 261.243L89.659 261.75L88.7672 262.048L87.9949 262.149L84.6764 261.533L83.9132 261.742L83.4443 262.269L83.0722 262.925L82.562 263.561L81.2019 264.422L80.3746 264.768L79.6532 264.905L79.198 265.332V266.204L79.6669 266.928H80.6414V267.607L78.9773 267.551L78.2051 267.748L77.5154 268.347L78.0855 268.773L78.793 268.942L80.4248 268.958L81.1743 269.319L81.9926 270.208L83.3348 272.328L81.8736 274.259L80.9081 275.174L79.8602 275.752L77.2816 276.278L76.2611 277.048L76.7438 278.443L77.4425 278.463L80.6414 277.164L82.0799 277.26L82.5626 277.164L82.9766 276.844L83.3719 276.371L83.8409 275.941L84.4845 275.753L85.7071 276.274L87.9824 278.804L89.1542 279.79L92.2571 280.632L93.0153 281.196L93.4474 282.63L94.6975 290.092L94.8352 290.536L94.7428 290.836L94.2002 291.267L93.3595 291.291L92.5642 290.811L91.9119 290.719L91.4608 291.938L92.1692 292.174L92.8396 292.597L93.4012 293.18L93.778 293.89L93.9936 294.718L94.1042 295.855L93.8605 296.861L93.028 297.299L92.3712 296.877L91.5668 295.041L91.0749 294.618L88.7265 294.794L87.9956 294.618L86.9339 293.986L87.0122 293.595L87.4716 293.22L87.5727 292.609L86.5756 291.146L86.2036 290.262L86.6079 289.863L88.1152 289.276L87.812 288.148L86.4655 287.368L84.8708 287.856L84.5586 288.44L83.814 290.439L83.1799 291.53L82.8258 292.277L82.5638 292.609L82.1361 292.748L81.2215 292.612L80.8262 292.944L79.8608 294.083L77.5076 296.094L76.745 297.299L76.373 299.366L76.4406 299.371ZM133.636 290.599L134.564 291.507L135.639 292.183L136.402 293.077L136.375 294.619L136.908 295.006L137.497 295.294L133.066 296.324L131.852 297.664L131.154 297.971L129.866 297.377L120.15 286.714L119.23 284.5L118.895 282.963L119.722 283.888L124.516 286.577L125.927 287.857L127.256 290.001L127.954 290.904L128.781 291.267L129.636 291.263L130.312 291.028L130.565 290.241L130.17 288.586L130.974 289.756L131.659 292.694L132.271 293.281L133.442 293.293L134.242 293.085L134.394 292.302L133.636 290.599ZM108.853 283.155L109.672 284.705L111.887 291.484L111.85 292.446L111.059 292.658L109.452 292.61L108.61 293.053L107.507 293.928L106.404 294.554L105.591 294.252L104.662 293.437L102.061 292.614L101.109 291.938V291.267L102.612 290.512L104.387 291.287L106.17 292.55L107.733 293.281V292.61L105.03 290.224L102.465 289.305L101.882 289.252L101.317 289.469L100.503 290.281L99.9516 290.6L97.7458 290.476L95.838 288.93L94.7256 286.35L94.905 283.156H94.5517V282.543L95.8018 283.42L97.1434 284.962L98.4623 286.114L99.5983 285.846L99.3582 285.498L98.9868 284.826L98.7658 284.178L98.9868 283.89L99.2948 283.673L98.9044 283.193L96.56 281.519L96.1696 280.734L96.8635 279.792V279.118L92.4283 279.54L91.6556 279.455L91.0948 279.022L90.41 278.922L89.808 278.674L89.5047 277.771L89.7069 277.334L90.7733 276.532L91.0767 275.754L90.0377 275.802L89.0997 276.163L88.19 276.328L87.2246 275.755V275.028L92.2064 272.644L94.2011 272.331L96.5455 272.788L99.9099 276.797L101.703 277.771L104.203 278.169L106.005 279.267L107.452 280.97L108.853 283.155ZM156.497 276.427L156.892 273.642L158.786 268.762L160.974 264.995L162.243 265.583L159.546 277.77L158.47 281.004L155.523 286.922L150.063 305.053L149.511 306.259L148.735 306.678L147.397 306.725L146.721 305.794L145.283 300.032L144.667 298.96L143.908 298.095L142.156 296.634L143.526 296.539L144.405 296.155L145.117 295.329L146.009 293.892L146.533 292.246L146.863 291.775L147.397 292.274L147.681 292.43L149.124 291.939L148.996 290.968L148.748 289.866L148.251 290.289L147.764 290.429L147.285 290.289L146.78 289.866L147.575 287.502L148.775 285.749L151.927 282.071L153.289 281.085L156.497 276.427ZM22.1599 246.585L20.7625 247.15L19.2732 245.582L17.977 243.148L16.2029 238.433L15.8261 236.281L16.396 234.864L18.3083 234.353L18.5195 237.311L19.4574 237.825L20.6065 237.626L21.4247 238.433L21.4062 239.599L20.68 241.821L20.8319 242.816L21.2596 243.909L21.655 245.765L22.1599 246.585ZM145.839 274.413H143.306L142.364 274.582L141.311 275.079L140.337 275.834L139.633 276.796L138.608 277.818L137.4 277.663L135.18 276.427L131.402 276.123L130.171 275.753L129.624 275.376L129.182 274.93L128.686 274.565L128.028 274.413L126.617 274.549L125.872 274.473L121.437 271.655L119.801 271.51L119.37 272.261L119.337 274.412L118.482 273.762L117.154 272.205L116.217 271.654L115.059 271.63L112.926 272.172L111.934 271.654L116.263 268.34L117.021 266.929L116.042 265.526L115.334 263.908L114.59 262.609L113.519 262.149L112.669 262.395L112.026 262.757L111.364 263.006L110.431 262.886L109.148 261.57L108.413 261.267L107.733 262.149L107.899 263.695L109.856 266.699L109.659 268.347L109.379 268.472L107.393 268.146L107.246 267.865L107.328 267.463L107.315 266.928L107.476 267L107.632 266.603L107.576 265.767L106.758 263.574L106.63 262.515L106.758 261.473L107.122 260.519L107.053 259.733L106.184 259.206L103.918 258.635L103.205 258.183L102.572 257.626L102.301 257.143L102.181 256.602L101.657 255.708L101.529 255.111L101.657 254.506L102.181 253.611L102.301 253.054L102.181 251.965L101.657 250.225L101.529 249.663L101.704 246.245L101.125 245.801L100.242 245.728L98.6009 245.905L97.8518 245.615L97.0519 244.902L95.6777 243.123L96.6288 242.767L97.686 242.638L98.6136 242.265L99.1789 241.153L96.0953 239.793L96.5591 239.89L98.0203 239.793L97.4369 238.627L96.4069 237.995L94.1639 237.692L93.3731 237.363L91.4608 234.976V234.352L92.9736 235.041L94.568 236.435L96.1397 237.461L97.6017 237.076L92.0225 232.097L89.9264 231.635L90.3584 230.601L90.901 230.187L91.5351 229.967L92.2707 229.529L94.3805 226.8L97.4278 226.187L98.4623 226.374L98.6553 226.902L98.6825 227.739L99.1789 228.847L101.896 230.337L104.837 229.285L110.431 225.44L117.734 222.992L120.221 221.154L121.613 220.666L123.13 220.556L123.58 220.666L123.617 220.967L123.971 222.386L123.999 222.708L124.793 222.411L124.991 221.654L124.802 219.608L125.583 219.397L127.322 220.21L131.219 222.923L132.101 224.017L132.8 225.244L133.296 225.898L133.83 226.186L134.863 226.313L135.802 226.666L137.511 227.868L136.587 227.494H135.705L135.052 228.014L134.795 229.188L135.003 229.627L135.834 230.296L135.954 230.893L135.659 231.725L135.196 231.952L134.63 231.988L134.023 232.256L131.909 235.309L132.838 236.971L134.841 236.878L135.954 234.665L136.588 234.835L140.229 232.934L142.366 232.257L142.614 231.945L142.503 231.264L142.228 230.581L141.966 230.273L141.461 230.139L140.918 229.798L140.462 229.34L140.229 228.849L140.394 227.972L141.097 228.3L141.847 229.072L142.159 229.531L142.877 228.423L142.693 226.851L142.145 225.096L141.774 223.393L142.049 223.853L142.923 224.759L142.946 223.075L142.574 220.594L142.583 219.923L143.658 219.862L145.313 221.734L147.979 226.189L148.089 226.827L148.144 227.716L148.268 228.508L148.557 228.849L148.695 229.069L149.899 230.273L150.258 231.65L150.138 232.453L149.614 233.013L147.968 234.084L145.343 235.222L141.442 234.857L140.476 235.067L139.805 235.659L139.501 236.927L140.026 237.559L140.935 237.596L141.771 237.077L141.51 236.563L141.45 236.247L141.867 235.226L142.984 235.505L146.781 236.396L147.627 237.158L153.202 245.284L153.565 246.157L154.994 250.444L155.331 252.063H154.912L154.246 251.013L153.216 250.334L152.279 250.609L151.866 252.377L152.187 253.592L153.694 256.011L154.145 257.482L154.251 259.614L154.108 261.572L153.732 263.242L152.872 265.266L152.706 266.001L152.637 267.979L152.453 268.498L151.066 270.367L150.532 271.571L150.156 272.696L149.645 273.668L148.749 274.414L148.06 274.583L145.839 274.413Z" fill="black" fill-opacity="0.2"/>
<path d="M5.17177 201.027L2.91196 184.459L2.63622 183.436L2.47053 183.226L2.4155 182.746L2.47053 182.278L2.63622 182.064L2.97656 182.179L3.1285 182.438L3.22479 182.697L3.39048 182.812L3.75834 183.346L5.16459 191.081L6.17545 193.749L6.3226 194.862L6.18921 195.825L5.63773 197.204L5.51331 198.325L5.70651 199.704L6.18921 199.987L8.72657 198.554L11.4242 196.402L12.6977 195.947L14.8995 194.203L17.1515 191.831L17.4685 190.191L17.1054 188.444L16.3146 186.737L15.4138 185.198L13.2994 182.439V179.306L12.6558 175.679L11.2035 173.357L9.24573 171.944L4.88824 169.946L3.7069 169.785L3.19668 170.638L3.25171 174.962L3.15541 177.011L2.81088 179.306L3.01783 180.988L2.86591 181.636L2.03866 181.374L1.8042 180.839L1.56075 179.787L1.349 178.57L1.0918 171.23L1.26646 168.943L2.63143 162.606L2.81088 160.219L2.16727 124.907L2.40653 123.189L2.81088 121.424L5.34822 112.55L6.49247 109.792L7.33347 108.461L7.678 108.733L7.9035 109.634L8.4227 110.145L8.38142 110.872L7.11275 114.206L6.67132 115.121V115.823L7.02064 116.175L7.40225 116.362L8.4227 116.463L8.6159 116.901L8.83664 117.892L9.13512 118.882L9.59449 119.324L11.9111 119.746L12.5313 120.175L11.7179 120.668L11.9249 121.612L11.7729 123.264L12.1037 124.227L12.614 124.632L13.0554 124.373L13.2163 123.681L12.8759 122.826V122.125L14.6548 121.537L17.3985 121.461L19.9077 121.979L21.0017 123.176L21.5257 123.347L24.3203 125.623L25.1015 125.265L25.8276 124.377L26.4341 123.231L26.857 122.125H27.2063L28.9158 126.941L28.9619 127.725L28.746 128.158L28.8333 129.124L29.2012 130.082L30.1253 130.832L31.2283 132.272L31.876 132.68L32.8414 132.663L36.2886 131.915L36.6607 131.727L36.9639 131.215L37.1613 130.429L37.2396 129.475L37.2534 127.979L37.327 126.967L37.6578 124.866L37.9012 124.278L38.1997 124.041L38.3194 123.707L38.0388 122.827L36.2874 121.425L35.7221 121.371L35.2945 121.125L35.0373 120.598L34.9548 119.709L34.7017 118.798L33.7411 118.281L33.7638 117.228L34.5127 116.539L37.0961 116.363L40.7406 110.145L41.5906 109.639L43.912 108.91L47.0284 108.772L47.1384 108.546L45.7872 108.035L43.3193 107.951L42.7402 107.378L43.2642 105.543L44.0914 103.928L44.7626 103.057L46.56 101.706L49.2301 99.072L50.2781 98.8238L50.8942 98.9497L51.9374 99.4742L52.5714 99.6001L53.233 99.4153L53.5775 98.9869L53.8532 98.4959L54.3036 98.1181L55.2966 98.0801L56.5928 98.5086L57.7143 99.3646L58.197 100.616L58.5325 103.027L59.3233 104.457L60.233 105.467L60.9269 106.628L61.6716 108.797L60.0997 109.191L58.4404 111.861L57.0067 112.25V113.015L57.2363 113.952L56.625 114.86L55.0806 116.464L54.5518 117.918L54.4873 119.217L54.7217 122.477L55.1494 123.465L56.0777 123.299L57.006 122.202L57.7597 118.845L58.5959 118.615L59.6164 118.82L60.5082 118.624L60.1541 117.642L59.6989 117.279L59.1564 117.404L58.5822 117.863L59.0098 116.744L59.4513 115.942L59.8467 115.056L60.1224 113.656H60.5082L60.1679 115.964L61.6435 116.314L63.6569 115.964L64.9256 116.14L65.6929 116.666L66.5525 116.49L67.3295 116.57L67.8445 117.865L67.6788 118.872L66.3827 120.78L65.8676 122.127L66.4837 122.378L66.6033 122.829L66.6398 123.45L67.0257 124.23L67.5772 124.793L68.993 125.627L69.2226 126.052L69.3602 126.606L69.5994 127.045L70.1509 127.094L70.9644 125.381L71.309 124.869L72.1087 125.62L72.7983 124.803L72.7798 123.505L71.5159 122.83L69.7646 123.88L69.6545 124.194L69.3972 124.285L68.7997 124.231L68.3171 123.951L68.2847 123.359L68.4546 122.867L68.606 122.829L68.7071 119.018L69.6354 115.735L70.1408 112.825L74.1891 114.839L76.3197 116.001L77.6828 113.67L77.184 112.228L77.6392 111.211L79.2709 111.343L80.1083 112.278L79.7578 114.729L81.325 116.495L87.746 116.566L88.852 117.649L87.3812 119.359L86.9757 121.598L88.0583 121.959L89.903 120.936L92.6987 124.149L95.1772 123.476L96.6909 124.321L97.6457 124.541L99.9956 124.164L101.875 121.936L104.122 120.617L105.497 120.19L108.862 119.795L112.732 117.372L114.615 114.686L117.241 112.466L119.117 110.338L121.871 110.875L124.22 110.732L125.731 109.795L127.083 109.284L128.13 111.548L128.407 114.947L127.427 117.864L123.622 120.804L120.818 123.991L120.313 124.229L119.913 127.559L119.719 128.492L120.147 129.654L119.885 131.124L119.246 132.481L118.561 133.313L120.299 133.221L120.947 132.681L120.878 128.805L121.057 125.992L121.628 124.629L123.994 122.827L125.865 120.298L126.862 119.622L128.025 120.373L128.227 121.024L128.531 123.224L128.585 123.879L128.833 124.216L130.506 125.625L134.744 128.059L139.354 128.604L152.771 126.476L154.646 126.692L156.493 127.726L157.335 128.692L159.155 131.915L162.657 135.472V136.108L161.347 137.405L160.644 139.756L160.363 142.472L160.312 144.878L159.692 147.142L154.493 154.585L151.86 156.409L150.867 157.798L150.563 159.146L150.711 162.303L149.92 165.39L148.137 165.762L146.17 164.31L144.855 161.956L146.308 161.709L146.905 161.16L147.199 159.874L147.043 158.519L146.472 158.106L145.738 157.974L145.062 157.453L143.706 156.965L142.304 158.643L141.03 160.858L139.22 162.99L139.615 165.35L140.36 167.932L140.608 169.639L140.056 170.348L139.156 170.788L138.195 170.9L137.492 170.64L136.922 169.799L136.36 167.858L135.947 166.868L136.397 166.385L137.354 165.687L137.877 165.481L137.473 164.35L136.977 163.81L134.642 163.104L134.126 163.203L132.867 164.033L131.286 164.343L130.312 163.55L129.453 162.13L128.234 160.568L129.494 160.441L131.382 158.899L132.444 158.494L133.244 159.089L134.223 160.147L135.189 160.54L135.947 159.123L134.991 157.502L135.056 156.236L136.711 152.872L135.947 152.885L135.134 152.553L134.389 151.949L133.824 151.17L133.203 150.748L131.742 151.435L130.966 150.788L130.754 152.152L130.446 153.001L129.949 153.443L129.164 153.568L128.75 154.113L127.233 157.451L125.855 159.237L122.803 161.766L121.433 163.685L120.642 166.062L121.019 167.547L121.952 168.932L122.834 171.013L123.207 173.575L122.972 175.526L122.278 177.296L121.258 179.306L122.613 178.641L123.607 178.517L123.878 179.233L122.462 182.418L122.324 183.707L122.417 186.256L122.365 188.017L122.283 188.792L122.063 189.641L120.707 191.424L120.49 192.137L120.215 192.133L119.603 192.534L118.946 193.157L118.56 193.76L118.84 194.018L119.249 195.009L119.466 196.073L118.969 196.802L118.785 197.293L118.491 197.788L117.958 198.009L117.264 197.825L116.735 197.342L115.857 195.946L115.604 195.296L115.439 194.55L115.195 193.805L114.671 193.142L113.954 192.888L108.465 193.142L107.735 193.396L107.28 193.994L106.926 194.682L106.535 195.198L105.069 195.788L102.091 195.608L100.717 195.948L102.136 197.532L110.216 199.323L110.786 199.774L110.584 200.833L109.651 202.881L109.182 204.634L109.32 205.406L110.105 205.59L111.581 205.553V206.248L109.264 207.574L108.588 208.701L109.232 210.353L109.02 210.524L108.495 211.099L107.167 210.266L100.963 212.09L98.1358 213.619L96.4681 213.769L93.0067 212.4L91.012 210.63L90.4965 210.353L89.8748 210.349L89.8773 210.337L90.1105 209.241L90.1632 208.355L89.8743 207.494L89.2235 206.903L87.9626 206.504L86.1036 206.25L85.4905 205.856L85.4032 205.108L85.5168 204.499L85.753 203.921L85.9193 203.298L85.6478 202.73L84.5705 202.499L82.5715 202.732L81.6785 202.426L80.8907 201.419L79.4605 198.994L78.1996 197.471L77.8671 196.542L77.6835 195.816L77.6045 195.299L77.1756 194.56L74.3099 190.949L72.8887 189.668L71.1026 188.548L65.8084 186.782L63.6778 187.251L62.137 190.4L59.5159 193.743L58.5612 194.534L57.5343 194.819L57.0264 195.21L56.5276 195.792L56.2297 196.323L55.7308 197.586L55.0041 197.495L54.3969 198.07L52.4619 198.283L51.6826 197.685L49.4293 194.74L47.7192 193.129L44.9498 192.869L42.8832 193.905L42.0255 196.869L41.4273 197.783L41.7252 199.487L41.7341 200.137L40.8237 200.718L38.9941 201.295L38.028 200.997L34.0588 198.165L32.217 197.679L31.6219 197.768L30.6935 198.181L29.7479 198.369L29.0707 198.241L28.484 198.013L27.9325 197.633L27.4157 197.618L26.9168 197.747L26.5143 198.007L26.2254 198.294L26.2601 198.618L26.549 199.255L26.6452 199.561L26.619 199.82L26.4963 200.041L23.6563 203.257L22.9296 204.04L21.902 204.249L21.2105 204.083L19.2199 202.808L17.7927 202.171L16.0473 200.921L5.17536 201.028L5.17177 201.027ZM139.804 194.51L140.576 193.244L141.026 191.666L140.981 189.952L140.227 188.263L139.193 187.512L138.049 187.02L137.318 185.948L137.497 183.436L138.076 182.117L138.931 181.23L139.657 181.451L140.075 185.686L140.981 187.435L142.254 188.571L143.692 189.014L143.191 190.01L142.967 191.081L143.022 192.143L143.306 193.143L144.28 194.527L144.957 194.126L145.439 193.053L145.839 192.454L146.01 193.126L145.205 194.601L143.692 196.574L143.412 198.391L143.472 201.745L142.92 203.502L141.092 205.218L139.11 204.671L137.593 202.326L137.102 198.637L137.424 196.599L138.012 195.755L138.83 195.329L139.804 194.51ZM193.616 110.145L193.465 108.634L194.103 108.095L198.92 107.579L201.366 106.628V107.399L201.127 107.415L200.943 107.554L200.593 108.035L199.591 108.512L198.814 109.559L198.153 110.722L197.504 111.609L196.553 111.998L195.395 111.873L194.314 111.25L193.616 110.145Z" fill="#9CC771"/>
<path d="M70.1439 112.822L70.1391 112.801L68.9949 110.145L68.4434 109.517L68.1491 109.282L67.0275 109.437L64.757 110.491L64.1966 111.295L62.9739 112.086L61.7788 112.161L61.2824 110.843L61.9164 109.6L64.5177 108.005L65.1063 106.276L65.4281 104.833L65.3132 104.121L63.9023 103.619L63.3232 103.107L62.8316 102.423L62.4458 101.706L62.1473 101.027L61.8254 99.9815L61.6137 98.7522L61.6735 97.475L61.963 97.1353L63.2593 95.0807L63.4064 94.5934L63.6732 94.0598L63.6271 92.8622L63.3604 91.6765L63.002 91.1338L62.3399 90.9952L61.8392 90.6419L60.9294 89.657L61.9822 87.073L63.0391 85.022L64.1833 83.3489L65.9348 81.5365L66.3301 81.3003L66.753 81.1567L67.2447 81.1142L67.5432 80.7853L67.856 79.3174L68.0397 78.9884L76.4137 76.1603L78.2799 76.2196L84.8709 78.9884V79.7607L84.1496 80.2458L84.0987 80.8869L84.5354 81.494L85.2938 81.8865L86.066 81.8146L86.6175 81.2794L88.677 77.9889L89.61 76.115L90.6439 74.6327L92.8597 73.809L94.7258 72.6134L97.428 73.3234L103.454 72.6134L100.113 69.485L98.4217 68.842L97.2767 67.8689L96.6707 67.6446L96.215 67.8982L94.2302 70.6179L93.1459 71.7592L91.942 72.334L90.8849 71.514L89.8643 70.4738L88.7887 70.7657L86.8125 72.6127L84.5371 73.5764L79.633 73.6523L66.7087 78.3394L65.592 78.4488L64.5213 77.9638L58.2013 72.6127L58.5596 73.9819L58.1044 74.6829L56.243 75.4516L54.8642 76.499L54.1429 76.8536L53.187 76.8704L53.5411 76.2202L52.5254 75.5616L51.5511 75.7811L50.5857 76.5665L49.6525 77.6348L48.738 77.5337L47.58 78.6774L46.5967 79.9179L46.1785 80.1159L45.6958 78.7282L44.5743 78.1923L43.2871 78.3316L42.3217 78.9897L43.1489 79.888L41.0991 81.8153L38.2955 83.3076L36.2822 82.7089L34.9584 82.9996L33.6348 83.6109L33.0283 84.361L32.7202 86.366L31.9617 87.5868L31.0699 88.5128L30.3348 89.6576L30.013 92.6013L29.9484 92.8378L29.8521 93.7328L29.5901 94.2491L29.2181 94.6785L27.4253 97.4759L26.1525 97.59L25.546 97.879L25.2888 98.4714L24.8659 98.8872L23.9376 99.265L23.0093 99.9706L22.5863 101.321L23.0691 104.814L23.0141 106.449L22.1641 107.399V108.036L24.4209 107.806L24.9401 108.036L25.3629 109.288L25.0226 110.162L24.2875 110.682L23.5524 110.845L22.8908 110.631L21.5671 109.664L20.8362 109.438L20.1603 109.639L19.0298 110.568L18.3126 110.845V111.61L21.006 110.845L21.8148 111.108L23.0003 112.046L23.5518 112.251L27.5367 110.506L28.3686 110.845L28.5248 111.598L28.3686 113.556V114.421L29.2193 115.785L29.6009 116.766L28.7647 118.274L28.1856 118.997L27.4272 119.326L26.6275 119.452L26.131 119.777L26.1538 120.211L26.8613 120.67L25.717 120.695L24.1452 119.234L22.7616 117.354L22.1641 116.139L21.6491 114.609L20.3804 113.376L18.7947 112.551L17.3466 112.251L16.3447 111.712L15.1496 110.405L14.037 108.815L13.3019 107.4L12.6721 103.687L12.3138 103.117L11.5463 102.849L9.95589 101.783L9.01858 101.708L9.83206 105.506L10.1216 107.73L9.98398 109.125L9.14296 109.268L8.71532 107.103L8.5957 102.349L9.25728 98.0955L10.526 94.9159L20.6562 78.2832L23.6989 75.0998L28.3686 67.6469L30.1614 65.9326L32.1836 65.971L36.8898 67.6469L39.5325 67.8121L44.6389 66.6355L46.9095 65.459L49.6208 62.4263L50.6323 61.9604L64.7612 64.0365L69.8951 63.418L75.0105 61.5028L79.85 58.2123L84.1106 53.4242L96.263 30.7705L98.4091 27.5519L102.303 23.1752L104.251 19.398L105 18.8668L106.347 16.8779L109.081 16.3246L114.294 16.7104L119.373 15.8401L124.001 13.764L128.013 10.8019L134.899 3.61879L138.659 0.778193L140.184 0.184228L141.872 0L143.509 0.387597L144.86 1.49836L141.781 2.67372L138.848 5.52629L134.215 12.7448L132.52 19.0708L134.096 23.8158L136.955 28.1704L139.078 33.2888L137.433 37.901L137.46 43.3597L138.656 54.0672L137.691 55.6296L134.804 57.7769L133.443 59.4738L131.448 63.6866L130.548 66.5152L129.899 70.9912L128.497 75.9851L127.817 77.636L127.339 78.3574L126.88 78.7623L126.263 78.952L123.598 78.9143L122.779 79.1254L121.75 79.4376L117.02 76.2214L113.518 72.4154L111.187 71.4559L109.303 69.5108L107.906 69.0663L106.766 69.7136L105.167 72.343L104.082 72.6134L105.13 72.7444L106.32 71.1976L107.313 70.4869L108.319 69.9839L109.487 70.4828L115.057 76.3979L116.905 77.3184L119.075 79.3102L120.316 79.7618L124.876 79.8755L125.929 80.47L124.342 82.4559L123.998 83.3029L123.727 84.672L123.419 87.4935L123.226 88.2513L123.635 89.9426L124.251 95.2148L124.495 99.3637L124.894 101.554L126.283 105.922L126.76 106.61L127.312 107.212L127.445 107.891L126.668 108.796L126.209 108.829L124.881 108.205L124.168 108.033H121.627L120.74 108.431L119.723 109.436L118.772 108.419L117.706 107.614L116.483 107.376L115.058 108.033L113.799 109.047L113.27 109.26L112.36 109.436L111.506 109.859L109.764 111.294L107.696 112.048L105.135 113.979L97.2486 115.121V115.823L99.8132 116.283L108.293 113.653L110.182 112.469L111.01 112.247L111.198 112.025L111.23 111.544L111.34 111.063L111.758 110.841L112.217 110.963L112.971 111.49L113.325 111.608L113.932 111.456L114.626 111.042L115.2 110.464L115.444 109.79L115.821 108.401L116.712 108.191L118.565 108.794L118.423 109.171L118.138 110.143L119.122 110.335L117.245 112.463L114.619 114.682L112.736 117.368L108.866 119.792L105.501 120.186L104.126 120.614L101.879 121.933L99.9998 124.16L97.6499 124.537L96.696 124.317L95.1814 123.473L92.7029 124.146L89.9073 120.933L88.0626 121.955L86.98 121.595L87.3855 119.355L88.8564 117.645L87.7504 116.563L81.3293 116.491L79.7621 114.726L80.1126 112.275L79.2752 111.34L77.6435 111.207L77.1883 112.224L77.6871 113.667L76.324 115.997L74.1934 114.835L70.1439 112.822ZM41.8958 105.166L41.1511 106.121L38.8118 108.035L38.5222 109.81L34.0182 111.058L32.4373 111.928L31.8762 111.627L30.3689 108.244L29.7528 107.399L28.3645 105.924L27.0085 105.228L26.6502 105.166L24.8989 105.841L24.3198 105.744L24.513 104.524L24.7798 104.009L25.2027 103.569L25.7081 103.242L26.2411 103.116L26.4983 102.663L26.4061 101.669L26.204 100.692L26.0479 100.298L27.615 99.1137L31.6137 98.5475L33.0247 96.7122L32.3171 96.7829L31.6137 96.7077L30.9473 96.4812L30.3312 96.0736L30.6482 95.0916L31.7787 93.5616L32.2525 92.4772L32.0688 92.5615L31.9492 91.7118L31.8756 90.0133L32.0551 89.651L32.4917 89.6217L32.993 89.6935L33.3794 89.66L35.0016 89.0457L38.3152 88.49L39.9697 87.5473L41.2062 87.981L42.3414 86.4904L44.2441 82.5343L45.5403 83.377L46.3676 82.2178L47.0016 80.8642L47.714 81.1172L47.3874 81.9522L46.7252 83.2418L46.5595 84.0087L46.6696 84.4555L47.2349 85.8959L47.3635 86.7715L47.2349 86.9904L46.559 90.3656L46.1038 91.6529L45.8143 92.1194L45.4004 92.4772L45.3866 91.2489L45.1019 90.459L44.67 89.9707L44.2423 89.6594L42.9049 90.7615L42.6704 91.1366L42.491 92.2254L42.6381 92.8894L42.8953 93.3686L43.0885 93.8977L43.5479 97.3382L44.0444 98.3962L45.0139 98.8247L44.6557 99.3411L44.2974 99.5757L43.8972 99.6309L43.442 99.6011L43.8601 99.9036L44.2418 100.298L43.4929 101.447L42.6423 103.783L41.8958 105.166ZM172.726 44.0751L174.284 44.0369L174.937 44.2881L175.425 44.7905L175.829 46.0586L175.785 47.1628L175.368 48.0552L174.111 47.7944L172.776 47.3159L168.447 48.3638L169.356 49.142L170.004 50.6973L169.831 52.39L168.479 53.8955L167.709 55.1642L167.236 56.571L166.314 57.6973L164.568 58.1148L163.441 57.1949L161.964 54.3788L159.972 53.999L158.405 53.1664L157.406 52.1974L156.497 51.1518V50.4974L158.384 50.0835L160.24 48.264L161.67 46.9714L163.945 46.8302L165.255 46.4247L166.251 45.2935L170.443 45.3222L172.726 44.0751Z" fill="black" fill-opacity="0.2"/>
<path d="M212.423 307.056L211.779 307.777L211.2 308.015L210.7 308.349L210.263 309.395L212.492 310.389L212.276 312.501L210.475 314.563L207.956 315.397L199.168 313.458L196.318 314.121L193.616 315.397L191.479 317.39L190.205 317.171L184.947 314.03L181.5 311.002L175.291 307.023L172.492 306.402L169.468 304.981L166.41 304.245L165.212 303.168L164.641 301.686L165.009 300.032L166.425 299.199L168.149 299.478L169.753 299.351L170.797 297.3L169.882 296.957L169.114 296.358L166.113 292.597L165.75 291.938V290.248L166.517 288.688L168.866 285.844L169.666 286.24L177.774 284.559L179.148 285.216L181.828 287.392L182.821 287.856L183.828 288.7L185.523 292.436L186.87 293.28L188.226 293.591L198.277 299.302L197.736 297.595L197.082 296.534L197.036 295.688L198.277 294.618H199.822L201.191 293.979L201.753 293.89L201.243 292.824L201.105 291.599L201.192 290.355L201.367 289.252L205.678 293.197L206.028 294.618L207.365 296.359L208.216 297.029L209.153 297.301L208.583 297.844L208.344 297.971L209.171 299.718L212.002 302.078L212.618 303.018L212.77 304.62L213.005 305.34V305.913L212.423 307.056ZM244.724 277.77L249.67 278.8L251.526 280.512L252.436 283.889L252.326 284.961L251.811 285.554L250.883 285.797L249.559 285.845L242.885 284.381L240.841 284.68L238.897 285.581L236.98 287.185L233.974 291.302L232.899 291.938L231.258 291.662L227.659 289.864V289.251H228.459L228.206 288.248L228.446 287.472L228.969 286.92L229.585 286.567L229.301 286.276L228.763 285.507L228.459 285.231L229.715 283.807L230.449 283.438L231.162 283.887L231.576 283.154L231.162 281.808L232.073 281.893L233.437 282.846L234.279 283.154L234.844 283.046L236.683 282.277L237.368 281.808L237.064 280.835L237.051 280.042L237.299 279.453L237.781 279.116V278.443L235.938 277.119L235.437 276.425L235.148 275.439L235.341 274.76L235.962 274.411H236.982L238.209 276.602L240.103 277.468L244.724 277.77ZM241.451 220.761L239.876 221.679L238.786 222.822L235.193 226.589L235.184 226.601L232.353 232.45L233.865 237.692L236.609 240.145L237.573 240.473L241.048 240.72L241.995 241.153L244.441 243.237L245.718 244.773L246.274 246.245L246.37 247.95L246.627 249.388L247.427 252.061L246.591 253.11L246.274 253.42L243.327 255.526L231.488 258.311L230.596 259.286L229.148 260.213L228.004 261.889L227.323 263.901L227.659 265.582L227.232 266.434L226.753 266.796L226.253 266.716L225.724 266.258L226.142 264.133L225.494 262.79L224.349 262.419L223.242 263.225L222.737 263.708L222.295 263.876L221.992 264.222L221.868 265.244L222.176 265.65L223.799 266.929L228.537 267.343L230.688 268.074L231.161 270.365L230.844 271.337L230.486 271.746L230.072 271.955L229.584 272.328L228.418 272.975L227.856 273.496L228.265 273.737L230.389 278.443L230.329 280.314L229.575 281.324L228.418 281.733L227.093 281.808L226.22 282.157L224.322 283.622L223.026 283.887L221.055 283.058L217.994 280.146L216.09 279.789L216.054 280.258L216.147 280.37L216.298 280.366L216.468 280.463L216.16 280.655L215.99 280.884L215.779 281.084L215.356 281.196L215.604 283.071L215.2 284.192L214.671 285.161L214.548 286.569L214.961 287.669L215.705 288.321L216.56 288.425L217.277 287.857L217.13 287.498L216.854 286.569L217.346 286.505L218.784 285.844L219.244 286.392L220.048 288.196L220.159 288.585L220.682 288.976L222.517 290.775L223.444 291.267L224.492 291.135L225.587 290.791L226.612 290.767L227.48 291.602L229.066 294.023L230.776 296.023V296.634L225.78 300.738L224.957 301.683L222.747 305.917L222.448 306.725L221.883 307.134L220.366 308.972L219.768 309.394L218.946 310.754L218.919 313.855L219.553 319.389L219.415 322.883L218.287 323L217.111 321.501L216.854 320.121L216.045 319.01L214.197 315.358L213.774 314.122L213.857 312.096L214.537 310.526L216.09 308.06L214.946 307.814L214.151 307.272L213.953 306.273L214.546 304.66L213.903 304.278L213.553 303.776L213.001 302.653L210.382 299.911L210.175 299.461L209.921 298.643L209.802 297.856L209.871 297.334L209.857 296.807L209.499 296.025L208.515 294.888L207.642 294.193L207.026 293.223L206.796 291.269L206.783 289.471L206.594 288.083L206.024 287.115L204.867 286.571V285.846L207.031 284.121L207.569 283.89L208.378 284.189L209.471 285.538L210.092 285.846L210.703 285.462L211.99 284.082L212.23 284.226L212.597 284.77L213.397 284.322L214.546 283.157V282.544L213.953 281.774L212.892 278.77L212.23 277.771L208.438 275.962L207.363 275.754L207.06 275.545L206.311 274.619L205.846 274.414L202.275 274.205L201.208 273.619L200.288 272.752L199.47 271.656L202.503 272.305L208.469 275.087L211.42 275.753L210.17 273.466L206.672 270.835L205.215 268.348L210.092 267.448L210.409 267.05L210.261 266.259L209.044 265.237L205.831 265.479L204.866 264.179L205.702 263.286L206.18 262.127L206.088 260.992L205.214 260.182L203.941 260.206L202.99 261.068L202.176 262.163L201.363 262.888L200.618 262.823L198.535 261.865L194.289 260.798L193.263 260.182L192.491 260.592L188.584 258.837L187.859 259.013L186.314 259.9L185.519 260.182H181.626V260.859L182.784 261.534L180.831 261.462L179.425 260.946L178.543 259.541L178.157 256.805L178.979 257.414L179.811 257.45L180.5 256.813L180.855 255.451L180.276 255.894L179.673 256.107L178.35 256.184L178.17 255.644L178.326 253.228L177.963 252.683L176.948 252.066L173.841 249.195L173.317 248.274L173.832 248.032L174.65 247.935L175.317 247.596L175.422 246.586L174.981 246.093L174.172 245.858L173.304 245.814L172.725 245.907L172.334 246.445L172.077 247.281L171.663 247.935H170.795L170.441 247.491L169.641 245.285V244.549L171.158 244.703L171.966 244.626L172.531 244.209L173.028 243.558L173.675 243.025L174.384 242.648L175.036 242.515L176.226 241.976L176.783 240.787L176.723 239.597L176.033 239.054L176.254 238.045L175.781 235.805L174.65 232.257L173.943 231.016L173.222 230.177L172.343 229.697L171.181 229.531L170.173 230.257L169.53 230.453L169.254 229.9L169.36 228.557L169.687 227.83L170.23 227.546L170.988 227.485L172.477 226.924L173.07 225.487L172.914 223.609L172.146 221.694L169.651 218.529L166.902 216.876L160.729 215.206V214.456L169.641 215.206L168.699 213.523L165.173 211.986L163.817 211.102L163.233 210.126L162.893 209.367L162.438 208.772L161.5 208.298L158.554 208.078L157.652 207.551V206.926L166.551 208.298L168.393 207.98L171.924 206.568L173.877 206.25V206.927L173.252 206.838L172.655 206.878L172.075 207.098L171.565 207.551L172.452 209.302L173.914 210.673L175.563 211.179L176.997 210.355L174.648 208.298L175.42 207.551L175.949 208.094L176.891 208.331L178.928 208.298L179.842 207.931L181.763 206.547L183.698 206.106L184.577 205.616L185.243 204.681L185.519 203.19L185.579 202.405L185.845 201.019L185.9 200.381L185.698 199.584L184.714 198.14L184.36 197.326L185.799 198.288L187.188 198.525L188.502 197.965L189.725 196.577L191.655 197.002L193.218 194.269L193.516 190.285L191.646 186.95L190.009 186.261L186.388 185.994L181.884 184.278L180.606 183.157L180.082 181.378L187.307 184.869L188.796 184.512L197.501 185.892L198.535 186.877L200.88 186.742L204.865 185.51L206.919 184.237L208.077 184.008L208.725 184.882L208.477 185.892L206.891 187.812L206.408 189.018L207.071 190.073L206.703 190.74L205.792 190.888L204.865 190.396L204.984 190.027L205.214 189.019L203.417 189.118L202.686 189.515L202.134 190.397L204.934 195.338L206.004 198.092L205.214 200.077L204.354 200.228L202.594 199.745L201.748 200.077L200.714 201.574L200.052 202.125L199.008 202.138V202.885L199.941 203.189L202.727 202.885L203.486 202.542L204.377 201.843L205.37 201.316L206.409 201.447L206.786 202.248L207.374 203.9L207.816 205.517L207.761 206.252L203.22 207.077L202.218 207.493L201.805 208.122L202.521 208.926L203.335 209.049L205.872 208.853L206.41 208.612L206.838 208.107L207.78 209.073L209.15 211.105L209.554 212.426L209.517 212.92L209.187 213.527L208.727 215.21L209.734 214.26L210.465 213.311L212.823 208.119L212.942 207.993L213.011 208.004L215.15 207.843L215.841 207.519L215.941 207.262L216.028 207.143L216.921 207.413L219.621 209.07L219.207 210.726L218.803 211.876L216.817 213.808L216.091 215.21L217.235 215.462L218.858 214.713L220.159 213.331L220.328 211.729L221.229 211.35L222.157 211.648L222.966 212.5L223.444 213.776L221.689 213.172L221.454 213.404L221.808 214.322L222.668 215.019L224.57 215.826L225.067 213.727L226.363 210.543L226.533 208.302L225.461 203.299H225.473L227.543 203.31L229.726 205.443L230.645 206.347L234.745 207.081L233.966 207.828L234.062 208.372L234.185 208.626L234.317 208.864L234.519 209.092L235.607 209.76L235.739 209.994L235.563 210.439L233.346 212.07L232.047 212.585L230.085 214.167L230.515 214.793L230.558 214.979L230.602 215.207L230.575 215.452L230.488 215.755L230.418 216.154L230.348 216.852L230.453 217.385L230.716 217.821L230.777 219.005L232.523 219.798L233.599 219.736L234.712 219.069L235.397 219.591L237.052 219.328L239.052 219.571L241.448 220.765L241.451 220.761Z" fill="#799C40"/>
</svg>
