<svg width="21" height="21" viewBox="0 0 21 21" fill="none" xmlns="http://www.w3.org/2000/svg">
<path d="M8.40457 19.875C8.40457 20.2202 8.12477 20.5 7.77957 20.5H3.21762C1.71914 20.5 0.5 19.2809 0.5 17.7824V13.5971C0.5 13.2519 0.779805 12.9721 1.125 12.9721C1.4702 12.9721 1.75 13.2519 1.75 13.5971V17.7824C1.75 18.5916 2.40836 19.25 3.21762 19.25H7.77957C8.12477 19.25 8.40457 19.5298 8.40457 19.875ZM19.875 12.9721C19.5298 12.9721 19.25 13.2519 19.25 13.5971V17.7824C19.25 18.5916 18.5916 19.25 17.7824 19.25H13.2204C12.8752 19.25 12.5954 19.5298 12.5954 19.875C12.5954 20.2202 12.8752 20.5 13.2204 20.5H17.7824C19.2809 20.5 20.5 19.2809 20.5 17.7824V13.5971C20.5 13.2519 20.2202 12.9721 19.875 12.9721ZM17.7824 0.5H13.2204C12.8752 0.5 12.5954 0.779805 12.5954 1.125C12.5954 1.4702 12.8752 1.75 13.2204 1.75H17.7824C18.5916 1.75 19.25 2.40836 19.25 3.21762V7.40289C19.25 7.74809 19.5298 8.02789 19.875 8.02789C20.2202 8.02789 20.5 7.74809 20.5 7.40289V3.21762C20.5 1.71914 19.2809 0.5 17.7824 0.5ZM1.125 8.02789C1.4702 8.02789 1.75 7.74809 1.75 7.40289V3.21762C1.75 2.40836 2.40836 1.75 3.21762 1.75H7.77957C8.12477 1.75 8.40457 1.4702 8.40457 1.125C8.40457 0.779805 8.12477 0.5 7.77957 0.5H3.21762C1.71914 0.5 0.5 1.71914 0.5 3.21762V7.40289C0.5 7.74809 0.779805 8.02789 1.125 8.02789ZM12.31 5.47477H15.3557C15.4477 5.47477 15.5253 5.55238 15.5253 5.64434V8.29273C15.5253 8.63793 15.8051 8.91773 16.1503 8.91773C16.4955 8.91773 16.7753 8.63793 16.7753 8.29273V5.64434C16.7753 4.8616 16.1384 4.22477 15.3557 4.22477H12.31C11.9648 4.22477 11.685 4.50457 11.685 4.84977C11.685 5.19496 11.9648 5.47477 12.31 5.47477ZM4.22477 5.6443V8.2927C4.22477 8.63789 4.50457 8.9177 4.84977 8.9177C5.19496 8.9177 5.47477 8.63789 5.47477 8.2927V5.6443C5.47477 5.55234 5.55238 5.47473 5.64434 5.47473H8.69004C9.03523 5.47473 9.31504 5.19492 9.31504 4.84973C9.31504 4.50453 9.03523 4.22473 8.69004 4.22473H5.64434C4.86156 4.22477 4.22477 4.86156 4.22477 5.6443ZM8.69 15.5252H5.6443C5.55234 15.5252 5.47473 15.4476 5.47473 15.3557V12.7073C5.47473 12.3621 5.19492 12.0823 4.84973 12.0823C4.50453 12.0823 4.22473 12.3621 4.22473 12.7073V15.3557C4.22473 16.1384 4.86156 16.7752 5.6443 16.7752H8.69C9.0352 16.7752 9.315 16.4954 9.315 16.1502C9.315 15.805 9.0352 15.5252 8.69 15.5252ZM16.7752 15.3557V12.7073C16.7752 12.3621 16.4954 12.0823 16.1502 12.0823C15.805 12.0823 15.5252 12.3621 15.5252 12.7073V15.3557C15.5252 15.4477 15.4476 15.5253 15.3557 15.5253H12.31C11.9648 15.5253 11.685 15.8051 11.685 16.1503C11.685 16.4955 11.9648 16.7753 12.31 16.7753H15.3557C16.1384 16.7752 16.7752 16.1384 16.7752 15.3557ZM19.875 9.875H1.125C0.779805 9.875 0.5 10.1548 0.5 10.5C0.5 10.8452 0.779805 11.125 1.125 11.125H19.875C20.2202 11.125 20.5 10.8452 20.5 10.5C20.5 10.1548 20.2202 9.875 19.875 9.875Z" fill="white"/>
<path d="M8.40457 19.875C8.40457 20.2202 8.12477 20.5 7.77957 20.5H3.21762C1.71914 20.5 0.5 19.2809 0.5 17.7824V13.5971C0.5 13.2519 0.779805 12.9721 1.125 12.9721C1.4702 12.9721 1.75 13.2519 1.75 13.5971V17.7824C1.75 18.5916 2.40836 19.25 3.21762 19.25H7.77957C8.12477 19.25 8.40457 19.5298 8.40457 19.875ZM19.875 12.9721C19.5298 12.9721 19.25 13.2519 19.25 13.5971V17.7824C19.25 18.5916 18.5916 19.25 17.7824 19.25H13.2204C12.8752 19.25 12.5954 19.5298 12.5954 19.875C12.5954 20.2202 12.8752 20.5 13.2204 20.5H17.7824C19.2809 20.5 20.5 19.2809 20.5 17.7824V13.5971C20.5 13.2519 20.2202 12.9721 19.875 12.9721ZM17.7824 0.5H13.2204C12.8752 0.5 12.5954 0.779805 12.5954 1.125C12.5954 1.4702 12.8752 1.75 13.2204 1.75H17.7824C18.5916 1.75 19.25 2.40836 19.25 3.21762V7.40289C19.25 7.74809 19.5298 8.02789 19.875 8.02789C20.2202 8.02789 20.5 7.74809 20.5 7.40289V3.21762C20.5 1.71914 19.2809 0.5 17.7824 0.5ZM1.125 8.02789C1.4702 8.02789 1.75 7.74809 1.75 7.40289V3.21762C1.75 2.40836 2.40836 1.75 3.21762 1.75H7.77957C8.12477 1.75 8.40457 1.4702 8.40457 1.125C8.40457 0.779805 8.12477 0.5 7.77957 0.5H3.21762C1.71914 0.5 0.5 1.71914 0.5 3.21762V7.40289C0.5 7.74809 0.779805 8.02789 1.125 8.02789ZM12.31 5.47477H15.3557C15.4477 5.47477 15.5253 5.55238 15.5253 5.64434V8.29273C15.5253 8.63793 15.8051 8.91773 16.1503 8.91773C16.4955 8.91773 16.7753 8.63793 16.7753 8.29273V5.64434C16.7753 4.8616 16.1384 4.22477 15.3557 4.22477H12.31C11.9648 4.22477 11.685 4.50457 11.685 4.84977C11.685 5.19496 11.9648 5.47477 12.31 5.47477ZM4.22477 5.6443V8.2927C4.22477 8.63789 4.50457 8.9177 4.84977 8.9177C5.19496 8.9177 5.47477 8.63789 5.47477 8.2927V5.6443C5.47477 5.55234 5.55238 5.47473 5.64434 5.47473H8.69004C9.03523 5.47473 9.31504 5.19492 9.31504 4.84973C9.31504 4.50453 9.03523 4.22473 8.69004 4.22473H5.64434C4.86156 4.22477 4.22477 4.86156 4.22477 5.6443ZM8.69 15.5252H5.6443C5.55234 15.5252 5.47473 15.4476 5.47473 15.3557V12.7073C5.47473 12.3621 5.19492 12.0823 4.84973 12.0823C4.50453 12.0823 4.22473 12.3621 4.22473 12.7073V15.3557C4.22473 16.1384 4.86156 16.7752 5.6443 16.7752H8.69C9.0352 16.7752 9.315 16.4954 9.315 16.1502C9.315 15.805 9.0352 15.5252 8.69 15.5252ZM16.7752 15.3557V12.7073C16.7752 12.3621 16.4954 12.0823 16.1502 12.0823C15.805 12.0823 15.5252 12.3621 15.5252 12.7073V15.3557C15.5252 15.4477 15.4476 15.5253 15.3557 15.5253H12.31C11.9648 15.5253 11.685 15.8051 11.685 16.1503C11.685 16.4955 11.9648 16.7753 12.31 16.7753H15.3557C16.1384 16.7752 16.7752 16.1384 16.7752 15.3557ZM19.875 9.875H1.125C0.779805 9.875 0.5 10.1548 0.5 10.5C0.5 10.8452 0.779805 11.125 1.125 11.125H19.875C20.2202 11.125 20.5 10.8452 20.5 10.5C20.5 10.1548 20.2202 9.875 19.875 9.875Z" stroke="white"/>
</svg>
